Coordinates
version=1
nRows=4
nColumns=63
inDegrees=yes

Units are S.I. units (second, meters, Newtons, ...)
If the header above contains a line with 'inDegrees', this indicates whether rotational values are in degrees (yes) or radians (no).

endheader
time	pelvis_tilt	pelvis_list	pelvis_rotation	pelvis_tx	pelvis_ty	pelvis_tz	hip_flexion_r	hip_adduction_r	hip_rotation_r	knee_angle_r	knee_angle_r_beta	ankle_angle_r	subtalar_angle_r	mtp_angle_r	hip_flexion_l	hip_adduction_l	hip_rotation_l	knee_angle_l	knee_angle_l_beta	ankle_angle_l	subtalar_angle_l	mtp_angle_l	L5_S1_Flex_Ext	L5_S1_Lat_Bending	L5_S1_axial_rotation	L4_L5_Flex_Ext	L4_L5_Lat_Bending	L4_L5_axial_rotation	L3_L4_Flex_Ext	L3_L4_Lat_Bending	L3_L4_axial_rotation	L2_L3_Flex_Ext	L2_L3_Lat_Bending	L2_L3_axial_rotation	L1_L2_Flex_Ext	L1_L2_Lat_Bending	L1_L2_axial_rotation	L1_T12_Flex_Ext	L1_T12_Lat_Bending	L1_T12_axial_rotation	Abs_r3	Abs_r2	Abs_r1	Abs_t1	Abs_t2	neck_flexion	neck_bending	neck_rotation	arm_flex_r	arm_add_r	arm_rot_r	elbow_flex_r	pro_sup_r	wrist_flex_r	wrist_dev_r	arm_flex_l	arm_add_l	arm_rot_l	elbow_flex_l	pro_sup_l	wrist_flex_l	wrist_dev_l
      1.66666667	     11.90698437	    -12.69565682	    135.20595767	     -0.41517334	      0.90751817	      0.07543052	     33.40844295	    -23.29748161	    -69.80941830	     64.41550981	      1.12426274	     32.73924006	    -19.80997016	      0.00000000	     22.15734458	      8.11145001	     39.83100947	     22.68134549	      0.39586416	    -59.85741854	     18.65644995	      0.00000000	      0.07329483	     -1.26634598	      3.81097490	      0.13611584	     -1.68424016	      4.04916083	      0.12041608	     -3.07899363	      4.04916083	      0.08376867	     -3.07899363	      3.33460304	      0.06806158	     -2.58233273	      3.09641711	      0.04188067	     -1.96156993	      2.85823117	      0.52353767	    -14.32515904	     21.19549910	      0.00000000	      0.00000000	     27.99106680	    -29.37178871	    -44.12645216	      5.90485843	     -3.72532402	    315.82861121	      4.87729481	    -53.10272777	     20.00409934	      5.00000014	     24.93582268	    -23.08930332	   -221.89829709	     40.68065553	     62.43690743	     20.00409934	      5.00000014
      1.70000000	     12.98616949	     -9.10453144	    130.54793694	     -0.41106503	      0.90365019	      0.07523046	     33.23881586	    -18.46660470	    -69.79839108	     66.42094207	      1.15926413	     34.73076398	    -19.78439570	      0.00000000	     17.90242936	      1.56352081	     39.83588310	     17.39088746	      0.30352825	    -59.86959247	     19.62004605	      0.00000000	      0.12201893	     -0.76355719	      4.67678131	      0.22660136	     -1.01553106	      4.96908014	      0.20046490	     -1.85651294	      4.96908014	      0.13945544	     -1.85651294	      4.09218365	      0.11330678	     -1.55704581	      3.79988481	      0.06972162	     -1.18275008	      3.50758598	      0.87156903	     -8.63751160	     26.01085461	      0.00000000	      0.00000000	     28.01118023	    -31.52345558	    -44.15651557	      5.37881220	     -5.83171763	    306.43835195	      6.31057663	    -51.95186241	     20.00408634	      5.00000014	     24.48969209	    -21.02200839	   -218.44703858	     41.58884092	     60.56309788	     20.00408634	      5.00000014
      1.73333333	     12.22952053	     -8.68688421	    126.35547070	     -0.40557262	      0.90178289	      0.07620743	     34.42842903	    -18.01610940	    -69.77240766	     69.86413287	      1.21935915	     36.01765539	    -19.74071164	      0.00000000	     17.30813754	      0.91373192	     39.85615870	     17.87278304	      0.31193891	    -59.87790834	     19.75957151	      0.00000000	      0.15241965	     -0.70098268	      5.37377092	      0.28305853	     -0.93230696	      5.70963160	      0.25041024	     -1.70436929	      5.70963160	      0.17420042	     -1.70436929	      4.70204956	      0.14153689	     -1.42944388	      4.36618887	      0.08709259	     -1.08582217	      4.03032819	      1.08871830	     -7.92965627	     29.88730174	      0.00000000	      0.00000000	     28.03778885	    -31.84961547	    -44.18461003	      5.10118679	     -6.73608788	    306.27025981	      7.04323117	    -51.86926754	     20.00408603	      5.00000014	     23.77455139	    -21.28838206	   -218.57849922	     41.82436844	     60.48508410	     20.00408603	      5.00000014
      1.76666667	      9.99918371	    -10.19267609	    124.68535060	     -0.40019691	      0.90249285	      0.07845467	     36.39748119	    -20.91347333	    -69.76759754	     73.66275707	      1.28565765	     36.65186310	    -19.69120896	      0.00000000	     18.73352565	      3.24827417	     39.85396896	     19.12662259	      0.33382254	    -59.87170114	     19.79578934	      0.00000000	      0.10827926	     -0.96054896	      5.57583316	      0.20108541	     -1.27753012	      5.92432274	      0.17789199	     -2.33547874	      5.92432274	      0.12375236	     -2.33547874	      4.87885402	      0.10054812	     -1.95875144	      4.53036444	      0.06187077	     -1.48789034	      4.18187487	      0.77342791	    -10.86592196	     31.01111130	      0.00000000	      0.00000000	     28.07901515	    -34.47010462	    -44.24727239	      5.22315161	     -6.25355570	    304.51411043	      8.69300197	    -51.64371543	     20.00408388	      5.00000014	     23.34781212	    -22.95241602	   -219.36812462	     41.37851447	     59.96902916	     20.00408388	      5.00000014
